<?xml version="1.0" encoding="utf-8"?>
<!-- Generator: Adobe Illustrator 24.1.2, SVG Export Plug-In . SVG Version: 6.00 Build 0)  -->
<svg version="1.1" id="Layer_1" xmlns="http://www.w3.org/2000/svg" xmlns:xlink="http://www.w3.org/1999/xlink" x="0px" y="0px"
	 viewBox="0 0 800 800" style="enable-background:new 0 0 800 800;" xml:space="preserve">
<style type="text/css">
	.st0{fill-rule:evenodd;clip-rule:evenodd;}
	.st1{enable-background:new    ;}
</style>
<path class="st0" d="M466.7,683.3V141.7c0-24.3-0.1-40-1.6-51.5c-1.5-10.8-3.8-14.2-5.7-16.1s-5.3-4.3-16.1-5.7
	c-11.6-1.6-27.3-1.6-51.5-1.6s-40,0.1-51.5,1.6c-10.8,1.5-14.2,3.8-16.1,5.7s-4.3,5.3-5.7,16.1c-1.6,11.6-1.6,27.3-1.6,51.5v541.7
	H466.7z"/>
<path class="st1" d="M266.7,291.7c0-13.8-11.2-25-25-25h-100c-13.8,0-25,11.2-25,25v391.7h150V291.7z"/>
<path class="st1" d="M666.7,458.3c0-13.8-11.2-25-25-25h-100c-13.8,0-25,11.2-25,25v225h150V458.3z"/>
<path class="st1" d="M58.3,683.3c-13.8,0-25,11.2-25,25s11.2,25,25,25H725c13.8,0,25-11.2,25-25s-11.2-25-25-25h-8.3h-50h-150h-50
	h-150h-50h-150h-50H58.3z"/>
</svg>
